<svg width="26" height="28" viewBox="0 0 26 28" fill="none" xmlns="http://www.w3.org/2000/svg">
<path fill-rule="evenodd" clip-rule="evenodd" d="M26 6C26 9.3137 23.3138 12 20 12C16.6863 12 14 9.3137 14 6C14 2.6863 16.6863 0 20 0C23.3138 0 26 2.6863 26 6ZM12 26C12.4 26 13 25.8 13.4 25.4C13.8 25 14 24.6 14 24H10C10 24.6 10.2 25 10.6 25.4C11 25.8 11.6 26 12 26ZM22 15.8C22.2 17 22.4 18 22.8 19.2L24 22.6L23 24H16C16 25 15.6 26 14.8 26.8C14 27.6 13 28 12 28C11 28 9.8 27.6 9.2 26.8C8.4 26 8 25 8 24H1L0 22.6L1.2 19.2C1.6 17.6 2 16 2 14.4V10C2 8.6 2.2 7.2 2.8 6C3.4 4.6 4.2 3.6 5.2 2.6C6.2 1.6 7.4 1 8.8 0.6C9.8 0.2 11 0 12 0C11.6 0.6 11.2 1.4 10.8 2.2C10.4 2.2 10 2.2 9.4 2.6C8.4 2.8 7.4 3.4 6.6 4.2C5.8 4.8 5 5.8 4.6 6.8C4.2 7.8 4 8.8 4 10V14.4C4 16.2 3.6 18 3.2 19.8L2.4 22H21.6L20.8 19.8C20.4492 18.7477 20.2522 17.5417 20.0742 16.4515C20.0492 16.2985 20.0246 16.1477 20 16C20.8 16 21.4 16 22 15.8Z" fill="#C5C5C5"/>
</svg>
