<svg width="32" height="32" viewBox="0 0 32 32" fill="none" xmlns="http://www.w3.org/2000/svg">
<path fill-rule="evenodd" clip-rule="evenodd" d="M25.952 25.7982C25.952 25.7342 25.92 25.7022 25.92 25.6384C25.6 24.6474 25.152 23.6884 24.544 22.8252C23.936 21.962 23.232 21.1948 22.368 20.5554C21.728 20.076 21.024 19.6603 20.288 19.3407C20.64 19.1169 20.96 18.8292 21.216 18.5734C21.696 18.0939 22.112 17.5824 22.464 17.007C22.816 16.4316 23.072 15.8242 23.264 15.1528C23.456 14.4815 23.52 13.8102 23.52 13.1389C23.52 12.0839 23.328 11.0929 22.944 10.1978C22.56 9.3027 22.016 8.5035 21.312 7.8002C20.64 7.12888 19.808 6.58542 18.912 6.2018C18.016 5.81818 17.024 5.62638 15.968 5.62638C14.912 5.62638 13.92 5.81818 13.024 6.2018C12.128 6.58542 11.296 7.12888 10.624 7.83216C9.952 8.5035 9.408 9.33466 9.024 10.2298C8.64 11.1249 8.448 12.1159 8.448 13.1708C8.448 13.8741 8.544 14.5455 8.736 15.1848C8.928 15.8561 9.184 16.4635 9.536 17.039C9.856 17.6144 10.304 18.1259 10.784 18.6054C11.072 18.8931 11.392 19.1489 11.744 19.3726C10.976 19.7243 10.272 20.1398 9.664 20.6194C8.832 21.2588 8.096 22.026 7.488 22.8572C6.88 23.7202 6.432 24.6474 6.112 25.6704C6.08 25.7342 6.08 25.7982 6.08 25.8302C3.552 23.2728 1.984 19.8202 1.984 15.984C1.984 8.27972 8.288 1.98202 16 1.98202C23.712 1.98202 30.016 8.27972 30.016 15.984C30.016 19.8202 28.448 23.2728 25.952 25.7982ZM11.104 15.1848C10.816 14.5455 10.688 13.8422 10.688 13.1389C10.688 12.4356 10.816 11.7323 11.104 11.0929C11.392 10.4535 11.776 9.87812 12.256 9.3986C12.736 8.91908 13.312 8.53546 13.952 8.24776C14.592 7.96004 15.296 7.83216 16 7.83216C16.736 7.83216 17.408 7.96004 18.048 8.24776C18.688 8.53546 19.264 8.91908 19.744 9.3986C20.224 9.87812 20.608 10.4535 20.896 11.0929C21.184 11.7323 21.312 12.4356 21.312 13.1389C21.312 13.8741 21.184 14.5455 20.896 15.1848C20.608 15.8242 20.224 16.3996 19.744 16.8791C19.264 17.3586 18.688 17.7423 18.048 18.03C16.768 18.5734 15.2 18.5734 13.92 18.03C13.28 17.7423 12.704 17.3586 12.224 16.8791C11.744 16.3996 11.36 15.8242 11.104 15.1848ZM16 29.986C12.992 29.986 10.24 29.027 7.968 27.4286C8 27.1728 8.064 26.917 8.128 26.6614C8.32 25.958 8.608 25.2868 8.96 24.6794C9.312 24.072 9.728 23.5284 10.24 23.049C10.72 22.5694 11.296 22.1218 11.872 21.7702C12.48 21.4186 13.12 21.1628 13.824 20.971C14.528 20.7792 15.264 20.6834 16 20.6834C17.184 20.6834 18.272 20.907 19.264 21.3226C20.256 21.7382 21.12 22.3136 21.856 23.017C22.592 23.7522 23.168 24.6154 23.584 25.6064C23.808 26.1818 23.968 26.7892 24.064 27.4286C21.76 29.027 19.008 29.986 16 29.986ZM32 15.984C32 7.16084 24.832 0 16 0C7.168 0 0 7.16084 0 15.984C0 20.8432 2.208 25.2228 5.664 28.1638C5.696 28.1958 5.728 28.1958 5.728 28.2278C6.016 28.4516 6.304 28.6754 6.624 28.8992C6.784 28.995 6.912 29.1228 7.072 29.2508C9.632 30.977 12.704 32 16.032 32C19.36 32 22.432 30.977 24.992 29.2508C25.152 29.1548 25.28 29.027 25.44 28.931C25.728 28.7072 26.048 28.4836 26.336 28.2598C26.368 28.2278 26.4 28.2278 26.4 28.1958C29.792 25.2228 32 20.8432 32 15.984Z" fill="#C5C5C5"/>
</svg>
