<svg width="28" height="28" viewBox="0 0 28 28" fill="none" xmlns="http://www.w3.org/2000/svg">
<path fill-rule="evenodd" clip-rule="evenodd" d="M14 16C15.2 16 16 15.2 16 14C16 12.8 15.2 12 14 12C12.8 12 12 12.8 12 14C12 15.2 12.8 16 14 16ZM18 14C18 16.2 16.2 18 14 18C11.8 18 10 16.2 10 14C10 11.8 11.8 10 14 10C16.2 10 18 11.8 18 14ZM16.8 0L17.8 4.8L22 2.2L26 6.2L23.2 10.4L28 11.2V16.8L23.2 17.8L26 22L22 26L17.8 23.2L16.8 28H11.2L10.2 23.2L6 25.8L2 21.8L4.8 17.6L0 16.8V11.2L4.8 10.2L2.2 6L6.2 2L10.4 4.8L11.2 0H16.8ZM16.2 6.8L15.2 2H12.8L11.8 6.8L10.4 7.4L6.4 4.8L4.6 6.4L7.2 10.4L6.8 11.8L2 12.8V15.2L6.8 16.2L7.4 17.8L4.8 21.8L6.4 23.4L10.4 20.8L12 21.4L12.8 26H15.2L16.2 21.2L17.8 20.6L21.8 23.2L23.4 21.6L20.8 17.6L21.4 16L26 15.2V12.8L21.2 11.8L20.6 10.2L23.2 6.2L21.6 4.6L17.6 7.2L16.2 6.8Z" fill="#C5C5C5"/>
</svg>
